<svg class="icon" style="width: 1em;height: 1em;vertical-align: middle;fill: currentColor;overflow: hidden;" viewBox="0 0 1024 1024" version="1.1" xmlns="http://www.w3.org/2000/svg" p-id="18673"><path d="M0 512a512 512 0 1 0 1024 0A512 512 0 1 0 0 512z" fill="#0181FF" p-id="18674"></path><path d="M548.48 689.408a44.928 44.928 0 1 1-89.824 0zM503.584 262.72c19.008 0 35.296 11.84 41.824 28.512 66.848 19.84 115.36 86.08 115.36 163.936v166.848h22.464c11.36 0 20.768 8.448 22.24 19.392l0.224 3.04a22.464 22.464 0 0 1-19.424 22.272l-3.04 0.192H323.936a22.464 22.464 0 0 1-3.04-44.704l3.04-0.192h22.432V455.168c0-77.856 48.544-144.096 115.36-163.936a44.96 44.96 0 0 1 41.856-28.512z" fill="#FFFFFF" p-id="18675"></path></svg>